<svg width="34" height="34" viewBox="0 0 34 34" fill="none" xmlns="http://www.w3.org/2000/svg">
<path d="M23.8166 15.1065C21.651 15.1065 21.3513 17.2645 21.3513 17.2645H25.9522C25.9522 17.2645 25.9822 15.1065 23.8166 15.1065Z" fill="white"/>
<path d="M13.3786 17.2645H9.30225V21.0111H13.1763C13.7607 20.9962 14.8548 20.8313 14.8548 19.1903C14.8548 17.242 13.3786 17.2645 13.3786 17.2645Z" fill="white"/>
<path d="M17.2151 0C7.94594 0 0.430176 7.51576 0.430176 16.7849C0.430176 26.0541 7.94594 33.5699 17.2151 33.5699C26.4843 33.5699 34.0001 26.0541 34.0001 16.7849C34.0001 7.51576 26.4843 0 17.2151 0ZM20.752 10.3108H26.5293V12.0342H20.752V10.3108ZM17.8296 19.3626C17.8296 23.6338 13.3786 23.4989 13.3786 23.4989H6.0951V9.48649H13.3786C15.5966 9.48649 17.3425 10.7079 17.3425 13.2181C17.3425 15.7284 15.2069 15.8858 15.2069 15.8858C18.0244 15.8858 17.8296 19.3626 17.8296 19.3626ZM28.6349 19.1303H21.3739C21.3739 21.7305 23.8392 21.5657 23.8392 21.5657C26.1696 21.5657 26.0872 20.0595 26.0872 20.0595H28.5525C28.5525 24.0609 23.7568 23.7837 23.7568 23.7837C18.0094 23.7837 18.3766 18.426 18.3766 18.426C18.3766 18.426 18.3691 13.0458 23.7568 13.0458C29.4292 13.0533 28.6349 19.1303 28.6349 19.1303Z" fill="white"/>
<path d="M14.3677 13.4354C14.3677 11.9818 13.3786 11.9818 13.3786 11.9818H9.30225V15.1065H13.1238C13.7832 15.1065 14.3677 14.8891 14.3677 13.4354Z" fill="white"/>
</svg>
