<svg width="49" height="49" viewBox="0 0 49 49" fill="none" xmlns="http://www.w3.org/2000/svg">
<path fill-rule="evenodd" clip-rule="evenodd" d="M3.8022 44.8157C1.19279 42.2063 1.19279 37.9756 3.8022 35.3662L12.4411 26.7273L0.652352 14.9386C-0.217451 14.0688 -0.217451 12.6585 0.652352 11.7887L11.7887 0.652355C12.6585 -0.217449 14.0687 -0.217449 14.9385 0.652355L26.7273 12.4411L36.2887 2.87967C36.5741 2.59423 36.9318 2.39173 37.3234 2.29382L46.2325 0.0665481C46.9915 -0.123202 47.7944 0.0991893 48.3476 0.6524C48.9008 1.20561 49.1232 2.00851 48.9334 2.76751L46.7062 11.6766C46.6083 12.0682 46.4058 12.4259 46.1203 12.7113L36.5589 22.2728L48.3476 34.0614C49.2174 34.9312 49.2174 36.3415 48.3476 37.2113L37.2112 48.3476C36.3414 49.2174 34.9312 49.2174 34.0614 48.3476L22.2727 36.559L13.6338 45.1978C11.0244 47.8073 6.79375 47.8073 4.18434 45.1978L3.8022 44.8157ZM19.1229 33.4091L15.5909 29.8771L6.95203 38.516C6.08223 39.3858 6.08223 40.7961 6.95203 41.6659L7.33417 42.048C8.20398 42.9178 9.61421 42.9178 10.484 42.048L19.1229 33.4091ZM33.4091 19.1229L42.5343 9.99772L43.7116 5.28841L39.0023 6.46574L29.8771 15.5909L33.4091 19.1229ZM35.6363 43.6229L43.6228 35.6364L13.3636 5.37711L5.37711 13.3636L8.90918 16.8957L14.016 11.7889L17.1658 14.9387L12.059 20.0456L15.591 23.5775L18.4705 20.698L21.6204 23.8478L18.7408 26.7274L22.2728 30.2594L27.3796 25.1525L30.5295 28.3024L25.4226 33.4092L28.9546 36.9412L31.8342 34.0616L34.984 37.2114L32.1045 40.091L35.6363 43.6229Z" fill="white"/>
</svg>
