<svg width="46" height="49" viewBox="0 0 46 49" fill="none" xmlns="http://www.w3.org/2000/svg">
<path d="M20.4444 30.9474H15.3333V38.6842H20.4444V30.9474Z" fill="black"/>
<path fill-rule="evenodd" clip-rule="evenodd" d="M21.2647 0.685722C22.2441 -0.228574 23.7559 -0.228574 24.7353 0.685722L45.1798 19.7699C45.7027 20.258 46 20.9443 46 21.6631V25.7895C46 27.2138 44.8558 28.3684 43.4444 28.3684H40.8889V46.4211C40.8889 47.8453 39.7447 49 38.3333 49H7.66667C6.25529 49 5.11111 47.8453 5.11111 46.4211V28.3684H2.55556C1.87775 28.3684 1.22779 28.0967 0.748542 27.613C0.269219 27.1294 0 26.4735 0 25.7895V21.6631C0 20.9443 0.297295 20.258 0.820214 19.7699L21.2647 0.685722ZM5.11111 23.2105H10.2222V43.8421H25.5556V28.3684H30.6667V43.8421H35.7778V23.2105H40.8889V22.7907L23 6.09201L5.11111 22.7907V23.2105Z" fill="black"/>
</svg>
