<svg width="54" height="49" viewBox="0 0 54 49" fill="none" xmlns="http://www.w3.org/2000/svg">
<path d="M53.2092 9.31344L43.7592 0L39.9408 3.7632L44.7816 8.53405H35.1C29.4652 8.53405 24.5022 11.3694 21.6 15.6714C18.6977 11.3694 13.7348 8.53417 8.1 8.53417H0V13.8561H8.1C14.0646 13.8561 18.8999 18.6215 18.9 24.4999C18.9 30.3784 14.0647 35.1439 8.1 35.1439H0V40.4658H8.1C13.7348 40.4658 18.6977 37.6306 21.6 33.3286C24.5022 37.6306 29.4652 40.466 35.1 40.466H44.7816L39.9408 45.2368L43.7592 49L53.2092 39.6866C54.2636 38.6474 54.2636 36.9625 53.2092 35.9234L43.7592 26.6099L39.9408 30.3731L44.7816 35.144H35.1C29.1353 35.144 24.3 30.3785 24.3 24.5001C24.3 24.5 24.3 24.5001 24.3 24.5001C24.3 18.6216 29.1353 13.856 35.1 13.856L44.7816 13.856L39.9408 18.6269L43.7592 22.3901L53.2092 13.0766C53.7155 12.5776 54 11.9008 54 11.195C54 10.4893 53.7155 9.81247 53.2092 9.31344Z" fill="black"/>
</svg>
